Coordinates
version=1
nRows=11
nColumns=63
inDegrees=yes

Units are S.I. units (second, meters, Newtons, ...)
If the header above contains a line with 'inDegrees', this indicates whether rotational values are in degrees (yes) or radians (no).

endheader
time	pelvis_tilt	pelvis_list	pelvis_rotation	pelvis_tx	pelvis_ty	pelvis_tz	hip_flexion_r	hip_adduction_r	hip_rotation_r	knee_angle_r	knee_angle_r_beta	ankle_angle_r	subtalar_angle_r	mtp_angle_r	hip_flexion_l	hip_adduction_l	hip_rotation_l	knee_angle_l	knee_angle_l_beta	ankle_angle_l	subtalar_angle_l	mtp_angle_l	L5_S1_Flex_Ext	L5_S1_Lat_Bending	L5_S1_axial_rotation	L4_L5_Flex_Ext	L4_L5_Lat_Bending	L4_L5_axial_rotation	L3_L4_Flex_Ext	L3_L4_Lat_Bending	L3_L4_axial_rotation	L2_L3_Flex_Ext	L2_L3_Lat_Bending	L2_L3_axial_rotation	L1_L2_Flex_Ext	L1_L2_Lat_Bending	L1_L2_axial_rotation	L1_T12_Flex_Ext	L1_T12_Lat_Bending	L1_T12_axial_rotation	Abs_r3	Abs_r2	Abs_r1	Abs_t1	Abs_t2	neck_flexion	neck_bending	neck_rotation	arm_flex_r	arm_add_r	arm_rot_r	elbow_flex_r	pro_sup_r	wrist_flex_r	wrist_dev_r	arm_flex_l	arm_add_l	arm_rot_l	elbow_flex_l	pro_sup_l	wrist_flex_l	wrist_dev_l
      1.15000000	      2.30088518	     -0.95600930	     92.28152551	      0.17657962	      1.05155621	      0.14407481	     -2.58117277	      3.11762327	     -7.63751914	      1.00111812	      0.01747281	     31.78307314	      3.51211146	      0.00000000	     -1.73184027	     -1.51485739	     17.28037804	      1.68001431	      0.02932178	     24.77477871	    -17.88851268	      0.00000000	      0.20843677	      0.30741602	     -0.63446823	      0.38708792	      0.40886330	     -0.67412249	      0.34244077	      0.74745131	     -0.67412249	      0.23822238	      0.74745131	     -0.55515970	      0.19355438	      0.62688275	     -0.51550544	      0.11910077	      0.47618741	     -0.47585117	      1.48884299	      3.47755149	     -3.52872195	      0.00000000	      0.00000000	     25.00020783	      4.99889169	      6.93898888	     23.62499216	     -7.09230714	     97.94473836	     39.68504727	     10.30279856	     -0.17488888	     16.61329329	     14.89685486	     -7.21622854	     65.68906636	     40.45688990	     59.91271715	      6.71693220	      3.87531206
      1.16666667	      2.20691555	     -0.93176055	     92.47577697	      0.17626669	      1.05164115	      0.14497143	     -2.54740405	      3.03604808	     -6.76148872	      0.93786640	      0.01636886	     31.77430848	      2.61029652	      0.00000000	     -1.62839408	     -1.40325135	     17.94174846	      1.74063203	      0.03037976	     24.81560444	    -17.97725745	      0.00000000	      0.20001912	      0.29413890	     -0.61145580	      0.37145550	      0.39120474	     -0.64967179	      0.32861140	      0.71516933	     -0.64967179	      0.22860185	      0.71516933	     -0.53502383	      0.18573775	      0.59980805	     -0.49680784	      0.11429092	      0.45562116	     -0.45859185	      1.42871654	      3.32735809	     -3.40073373	      0.00000000	      0.00000000	     24.98857880	      4.70555022	      6.23263304	     23.95395564	     -6.95147142	     98.62227333	     39.13183617	     15.44103490	      1.34348496	     15.41986612	     15.41037394	     -7.21607597	     66.63601751	     40.30606810	     59.41212524	      6.97415901	      3.84181959
      1.18333333	      2.05646093	     -0.92069317	     92.53921157	      0.17606673	      1.05177435	      0.14579435	     -2.48243160	      2.87164387	     -6.26310702	      0.89464707	      0.01561454	     31.92861440	      2.46613220	      0.00000000	     -1.53668462	     -1.22109425	     18.49379023	      1.77329025	      0.03094975	     24.89155367	    -17.96598289	      0.00000000	      0.19364292	      0.27326845	     -0.55173098	      0.35961426	      0.36344703	     -0.58621417	      0.31813595	      0.66442490	     -0.58621417	      0.22131449	      0.66442490	     -0.48276461	      0.17981681	      0.55724901	     -0.44828142	      0.11064756	      0.42329282	     -0.41379824	      1.38317199	      3.09126731	     -3.06856220	      0.00000000	      0.00000000	     24.99157766	      4.36835828	      5.24579471	     24.01444518	     -6.91560400	     98.61326845	     38.88699023	     16.70792914	      1.74055912	     15.06608725	     15.81339711	     -7.16701902	     66.97386198	     40.09864680	     59.76351414	      7.65484132	      4.07760501
      1.20000000	      1.89574101	     -0.93933334	     92.43082203	      0.17597900	      1.05195121	      0.14658671	     -2.33379637	      2.65803904	     -6.85883759	      0.94411712	      0.01647795	     32.37445121	      3.99348816	      0.00000000	     -1.46970727	     -1.02474506	     18.84740142	      1.72268689	      0.03006656	     24.95901684	    -17.90442871	      0.00000000	      0.19176074	      0.25582799	     -0.46662800	      0.35611887	      0.34025123	     -0.49579224	      0.31504372	      0.62202017	     -0.49579224	      0.21916335	      0.62202017	     -0.40829950	      0.17806902	      0.52168443	     -0.37913525	      0.10957209	      0.39627755	     -0.34997100	      1.36972780	      2.89397737	     -2.59524492	      0.00000000	      0.00000000	     24.98330540	      4.00472091	      4.46098409	     24.12480486	     -6.88822665	     98.62714351	     38.55945786	     19.59511392	      2.33903633	     14.53070942	     16.22824960	     -7.09283688	     67.32868808	     39.88890211	     59.90578173	      8.15621169	      4.45907589
      1.21666667	      1.65763220	     -0.97202583	     92.79397220	      0.17524481	      1.05213042	      0.14754331	     -2.24017906	      2.39733220	     -6.83305407	      0.89124921	      0.01555523	     32.54429610	      3.95001895	      0.00000000	     -1.24425251	     -0.73368212	     19.55169053	      1.86756282	      0.03259512	     24.96267595	    -17.95609671	      0.00000000	      0.18528020	      0.22429425	     -0.49513440	      0.34408386	      0.29831135	     -0.52608030	      0.30439684	      0.54534904	     -0.52608030	      0.21175674	      0.54534904	     -0.43324260	      0.17205120	      0.45738084	     -0.40229670	      0.10586911	      0.34743179	     -0.37135080	      1.32343795	      2.53726142	     -2.75378902	      0.00000000	      0.00000000	     25.12575714	      3.70737424	      3.43965194	     24.24787457	     -6.83546822	     98.61859536	     38.37852766	     21.73507473	      2.40386254	     13.46829807	     16.39759035	     -7.11556500	     66.76907065	     39.78579396	     60.81501213	      8.85976546	      5.19232913
      1.23333333	      1.53427227	     -1.11899752	     92.79067105	      0.17473394	      1.05213879	      0.14849007	     -2.03694603	      2.24381874	     -4.07595583	      0.78140326	      0.01363806	     32.00801889	      0.67084726	      0.00000000	     -0.97676334	     -0.54731274	     19.68087123	      1.93689811	      0.03380525	     24.92168803	    -17.97398995	      0.00000000	      0.19325694	      0.21966241	     -0.51580293	      0.35889746	      0.29215100	     -0.54804061	      0.31750183	      0.53408718	     -0.54804061	      0.22087336	      0.53408718	     -0.45132756	      0.17945839	      0.44793558	     -0.41908988	      0.11042702	      0.34025707	     -0.38685220	      1.38041500	      2.48486510	     -2.86874115	      0.00000000	      0.00000000	     25.17447132	      3.54079048	      3.52328423	     24.59571449	     -6.56227685	     95.92992697	     37.02207424	     64.72874384	      4.75796049	      6.21068531	     16.34135417	     -7.10435123	     65.76245881	     39.72867350	     61.71966774	      9.32891079	      5.92502344
      1.25000000	      1.32970716	     -1.37735381	     92.83591596	      0.17416925	      1.05205181	      0.14952384	     -1.66892346	      1.95999512	     -4.17735311	      0.82347375	      0.01437233	     32.09352975	      0.90449657	      0.00000000	     -0.53292114	     -0.24786538	     19.47573402	      2.17120843	      0.03789474	     24.80513590	    -17.93242946	      0.00000000	      0.20529266	      0.20178626	     -0.56939389	      0.38124900	      0.26837572	     -0.60498101	      0.33727531	      0.49062311	     -0.60498101	      0.23462898	      0.49062311	     -0.49821965	      0.19063477	      0.41148254	     -0.46263254	      0.11730423	      0.31256691	     -0.42704542	      1.46638495	      2.28264651	     -3.16679800	      0.00000000	      0.00000000	     25.49322876	      3.52041694	      3.61366557	     24.78166272	     -6.64843456	     98.70848288	     37.65758706	     32.75541063	      3.06612785	      9.68923461	     16.16879205	     -7.26576370	     64.49811187	     39.81844602	     62.52697274	      9.88815308	      6.59169956
      1.26666667	      1.20289813	     -1.67072686	     92.81399272	      0.17348690	      1.05183714	      0.15075388	     -1.25147363	      1.74161781	     -4.46449341	      0.90384172	      0.01577501	     32.07115131	      1.24803155	      0.00000000	     -0.05541358	     -0.01168290	     18.91295866	      2.42516297	      0.04232708	     24.63465011	    -17.89976318	      0.00000000	      0.21609595	      0.19813262	     -0.60662046	      0.40131179	      0.26351639	     -0.64453424	      0.35502403	      0.48173966	     -0.64453424	      0.24697606	      0.48173966	     -0.53079290	      0.20066670	      0.40403205	     -0.49287912	      0.12347723	      0.30690743	     -0.45496534	      1.54355175	      2.24131587	     -3.37384100	      0.00000000	      0.00000000	     25.80550532	      3.63035987	      4.04947879	     24.74399793	     -6.89016398	     98.76888837	     38.58411057	     17.77877224	      0.84800572	     10.45528034	     16.33654128	     -7.43595823	     64.12366924	     39.84684712	     62.00229576	     10.00130376	      7.00205386
      1.28333333	      1.03573269	     -2.00044795	     92.77277598	      0.17270239	      1.05153916	      0.15201890	     -0.81029627	      1.47315146	     -4.46863845	      1.01528790	      0.01772012	     31.92072611	      1.18189895	      0.00000000	      0.49067506	      0.28296460	     18.25832308	      2.78191700	      0.04855361	     24.44528204	    -17.91743265	      0.00000000	      0.22728665	      0.19445937	     -0.64601133	      0.42209404	      0.25863096	     -0.68638704	      0.37340924	      0.47280851	     -0.68638704	      0.25976592	      0.47280851	     -0.56525991	      0.21105839	      0.39654154	     -0.52488421	      0.12987159	      0.30121756	     -0.48450850	      1.62348583	      2.19976326	     -3.59292122	      0.00000000	      0.00000000	     26.15476780	      3.65975991	      4.75369739	     24.71181097	     -6.97059477	     98.04798193	     38.54132866	     17.17142982	      0.77272982	      9.22932651	     16.47768370	     -7.73045253	     63.57926763	     39.99548741	     61.35775273	      9.76980895	      6.69713225
      1.30000000	      0.94212137	     -2.29493595	     92.76033004	      0.17185276	      1.05128390	      0.15343394	     -0.40178875	      1.28922362	     -4.26776033	      1.15088910	      0.02008680	     31.61977423	      0.74384836	      0.00000000	      1.05003685	      0.50516834	     17.46134059	      3.22069108	      0.05621166	     24.36192670	    -17.76003307	      0.00000000	      0.23351450	      0.20515797	     -0.69277191	      0.43365978	      0.27286011	     -0.73607016	      0.38364097	      0.49882110	     -0.73607016	      0.26688372	      0.49882110	     -0.60617542	      0.21684156	      0.41835814	     -0.56287718	      0.13343019	      0.31778970	     -0.51957893	      1.66797072	      2.32078804	     -3.85298954	      0.00000000	      0.00000000	     26.35123422	      3.94267420	      6.17949493	     25.02999940	     -6.96391127	     98.79039388	     38.52201584	     12.36205713	      1.05548327	      7.94993245	     16.82398452	     -8.20001686	     63.51346619	     40.47775341	     59.32008243	      8.37317879	      6.14393671
      1.31666667	      0.80807831	     -2.58070767	     92.74530047	      0.17109972	      1.05110172	      0.15483261	      0.01601763	      1.06546581	     -4.27452898	      1.33041362	      0.02322010	     31.41678000	      0.63519471	      0.00000000	      1.55430230	      0.75510227	     17.01804968	      3.55986029	      0.06213128	     24.15434943	    -17.81599040	      0.00000000	      0.23930007	      0.20322051	     -0.68876174	      0.44440415	      0.27028328	     -0.73180935	      0.39314608	      0.49411035	     -0.73180935	      0.27349605	      0.49411035	     -0.60266653	      0.22221404	      0.41440727	     -0.55961892	      0.13673606	      0.31478857	     -0.51657131	      1.70929644	      2.29887108	     -3.83068619	      0.00000000	      0.00000000	     26.61902479	      3.86258464	      6.59651860	     24.85461650	     -7.06826183	     97.96690867	     38.31871402	     11.77348631	      1.50381600	      7.13185624	     17.04423465	     -8.59306137	     62.26139328	     40.82990980	     59.02349202	      7.59775865	      5.04356601
